<svg width="256" height="256" viewBox="0 0 256 256" fill="none" xmlns="http://www.w3.org/2000/svg">
<g clip-path="url(#clip0_1_21)">
<circle cx="128" cy="128" r="128" fill="#2767B1"/>
<path d="M90.4421 191H62.2464V100.2H90.4421V191ZM76.3291 87.8138C67.313 87.8138 60 80.3457 60 71.3295C60 66.9986 61.7204 62.8452 64.7827 59.7828C67.845 56.7204 71.9984 55 76.3291 55C80.6599 55 84.8132 56.7204 87.8755 59.7828C90.9378 62.8452 92.6582 66.9986 92.6582 71.3295C92.6582 80.3457 85.3421 87.8138 76.3291 87.8138ZM195.97 191H167.835V146.799C167.835 136.265 167.622 122.756 153.175 122.756C138.516 122.756 136.269 134.201 136.269 146.04V191H108.104V100.2H135.146V112.586H135.541C139.305 105.452 148.5 97.9229 162.219 97.9229C190.754 97.9229 196 116.714 196 141.122V191H195.97Z" fill="white"/>
</g>
<defs>
<clipPath id="clip0_1_21">
<rect width="256" height="256" fill="white"/>
</clipPath>
</defs>
</svg>
